<?xml version="1.0" encoding="utf-8"?>
<!-- Generator: Adobe Illustrator 16.0.0, SVG Export Plug-In . SVG Version: 6.00 Build 0)  -->
<!DOCTYPE svg PUBLIC "-//W3C//DTD SVG 1.1//EN" "http://www.w3.org/Graphics/SVG/1.1/DTD/svg11.dtd">
<svg version="1.1" id="Layer_1" xmlns="http://www.w3.org/2000/svg" xmlns:xlink="http://www.w3.org/1999/xlink" x="0px" y="0px"
	 width="64px" height="64px" viewBox="0 0 64 64" enable-background="new 0 0 64 64" xml:space="preserve">
<g>
	<path fill="#010101" d="M50.048,46.049c-0.585,0-1.005,0.045-1.261,0.105v7.239c0.256,0.045,0.646,0.045,1.021,0.045
		c2.403,0.015,3.83-1.306,3.83-3.875C53.654,47.326,52.362,46.049,50.048,46.049z"/>
	<path fill="#010101" d="M55.113,42.138V9.606H32.456c1.397-1.271,3.997-1.219,6.523-1.154c2.688,0.065,5.468,0.132,6.962-1.437
		c0.838-0.881,1.184-2.154,1.056-3.894l-0.892,0.065c0.108,1.474-0.156,2.524-0.812,3.212c-0.799,0.839-2.134,1.101-3.69,1.165
		c0.349-0.182,0.672-0.405,0.946-0.703c0.832-0.899,1.168-2.27,1.027-4.187L42.686,2.74c0.122,1.656-0.138,2.807-0.792,3.516
		c-0.985,1.065-2.816,1.076-4.754,1.087c-2.106,0.013-4.284,0.025-5.662,1.428c-0.238,0.242-0.433,0.527-0.606,0.836H5.922v49.191
		h33.473c1.969,1.578,4.464,2.527,7.183,2.527s5.214-0.949,7.183-2.527h1.352v-1.285c1.837-2.038,2.965-4.728,2.965-7.688
		S56.95,44.176,55.113,42.138z M31.317,14.941H44.48c2.468,0,4.468,2,4.468,4.468v4.43H38.05c0.332-0.276,0.548-0.688,0.548-1.154
		c0-0.833-0.675-1.509-1.508-1.509h-0.297v2.663h-0.466v-6.628h-5.012C31.315,16.398,31.316,15.622,31.317,14.941z M12.086,19.409
		c0-2.468,2.001-4.468,4.469-4.468h13.621c-0.001,0.682-0.002,1.458-0.002,2.27H25.9v6.628h-0.707v-2.663h-0.297
		c-0.834,0-1.508,0.676-1.508,1.509c0,0.466,0.215,0.878,0.548,1.154H12.086V19.409z M41.779,54.971
		c-1.187,0-2.208-0.33-2.733-0.676l0.421-1.396c0.375,0.225,1.291,0.6,2.222,0.6c1.413,0,1.984-0.796,1.968-1.562
		c0-1.157-1.081-1.652-2.208-1.652h-0.856v-1.351h0.826c0.856,0,1.938-0.392,1.938-1.367c0-0.661-0.497-1.217-1.563-1.217
		c-0.795,0-1.591,0.346-1.997,0.616l-0.421-1.336c0.557-0.39,1.638-0.751,2.809-0.751c2.012,0,3.049,1.111,3.049,2.388
		c0,1.021-0.601,1.861-1.803,2.282v0.03c1.187,0.21,2.147,1.112,2.147,2.433C45.579,53.663,44.197,54.971,41.779,54.971z
		 M35.078,49.825c0,1.261,0.21,2.47,0.585,3.605h-2.094l0.092,0.032H16.555c-2.468,0-4.469-2-4.469-4.468V26.668H25.9v6.628h3.489
		v2.148c0,0.852,0.62,1.555,1.432,1.694l0.867-0.076c0.668-0.238,1.148-0.869,1.148-1.618v-2.148h3.49v-6.628h12.621v11.904
		c-0.765-0.16-1.557-0.247-2.37-0.247C40.227,38.325,35.078,43.474,35.078,49.825z M54.015,53.529
		c-1.007,0.916-2.614,1.382-4.581,1.382c-1.081,0-1.893-0.06-2.494-0.136v-9.957c0.811-0.136,1.848-0.21,2.943-0.21
		c1.893,0,3.199,0.39,4.131,1.172c0.976,0.796,1.576,1.997,1.576,3.724C55.591,51.306,54.976,52.658,54.015,53.529z"/>
</g>
</svg>
